<?xml version="1.0" encoding="UTF-8"?>
<svg width="239px" height="200px" viewBox="0 0 239 200" version="1.1" xmlns="http://www.w3.org/2000/svg" xmlns:xlink="http://www.w3.org/1999/xlink">
    <!-- Generator: Sketch 56.3 (81716) - https://sketch.com -->
    <title>Artboard Copy 10</title>
    <desc>Created with Sketch.</desc>
    <defs>
        <linearGradient x1="43.8834109%" y1="44.7075603%" x2="53.3679454%" y2="54.3434741%" id="linearGradient-1">
            <stop stop-color="#344F64" stop-opacity="0.83088396" offset="0%"></stop>
            <stop stop-color="#FFFFFF" stop-opacity="0" offset="100%"></stop>
        </linearGradient>
        <linearGradient x1="20.9884418%" y1="0%" x2="83.8080116%" y2="94.8807035%" id="linearGradient-2">
            <stop stop-color="#FFFFFF" offset="0%"></stop>
            <stop stop-color="#D8D8D8" stop-opacity="0.347328453" offset="100%"></stop>
        </linearGradient>
        <linearGradient x1="17.9368162%" y1="0%" x2="87.3641596%" y2="94.8807035%" id="linearGradient-3">
            <stop stop-color="#FFFFFF" offset="0%"></stop>
            <stop stop-color="#D8D8D8" stop-opacity="0.347328453" offset="100%"></stop>
        </linearGradient>
        <linearGradient x1="19.9708423%" y1="0%" x2="84.9938498%" y2="94.8807035%" id="linearGradient-4">
            <stop stop-color="#FFFFFF" offset="0%"></stop>
            <stop stop-color="#D8D8D8" stop-opacity="0.347328453" offset="100%"></stop>
        </linearGradient>
    </defs>
    <g id="Artboard-Copy-10" stroke="none" stroke-width="1" fill="none" fill-rule="evenodd">
        <g id="Group" transform="translate(7.500000, 10.500000)">
            <path d="M111.509005,160.928702 L115.41127,159.490053 C118.241026,158.446806 120.12071,155.750466 120.12071,152.734529 L120.12071,112.940661 L111.528534,116.076563 L111.528534,89.1970935 L120.12071,86.0173766 L120.12071,19.3731854 L151.871539,7.91655346 L166.890356,2.45015114 C180.923038,-2.65732724 196.626675,0.347690935 207.782298,10.2751556 C218.631251,19.9297127 224.213207,34.1874917 222.802855,48.6415974 L222.642457,50.2854512 C221.080548,66.2928 210.467463,79.9817743 195.35404,85.4826107 L152.665627,101.062681 L152.665627,144.573235 C152.665627,147.432187 154.983266,149.749826 157.842218,149.749826 C158.721668,149.749826 159.58662,149.525768 160.355466,149.098793 L160.355466,153.369309 L111.528534,170.75026 L111.528534,170.764164 L111.509005,170.757212 L111.489476,170.764164 L111.489476,170.75026 L62.6625446,153.369309 L62.6625446,149.098793 C63.431391,149.525768 64.2963423,149.749826 65.1757925,149.749826 C68.0347448,149.749826 70.3523837,147.432187 70.3523837,144.573235 L70.3523837,101.062681 L27.6639709,85.4826107 C12.5505472,79.9817743 1.9374622,66.2928 0.375553294,50.2854512 L0.215155093,48.6415974 C-1.1951969,34.1874917 4.38675906,19.9297127 15.2357125,10.2751556 C26.3913358,0.347690935 42.0949725,-2.65732724 56.1276541,2.45015114 L71.146471,7.91655346 L102.897301,19.3731854 L102.897301,86.0045836 L111.528534,89.1970935 L111.489476,116.076563 L102.897301,112.940661 L102.897301,152.734529 C102.897301,155.750466 104.776984,158.446806 107.60674,159.490053 L111.509005,160.928702 Z M152.665627,73.9734395 L186.594938,61.4171779 C192.442754,59.2887469 196.549261,53.9920911 197.153608,47.7983898 L197.314006,46.1545359 C197.929663,39.8449329 195.49299,33.6210317 190.757132,29.4065598 C186.635647,25.7388224 180.833882,24.6286077 175.649458,26.5155839 C167.275288,29.5635324 159.614011,32.3520092 152.665627,34.8810142 L152.665627,73.9734395 Z M70.3523837,34.8810142 L47.3685529,26.5155839 C42.1841284,24.6286077 36.3823636,25.7388224 32.2608786,29.4065598 C27.5250208,33.6210317 25.088348,39.8449329 25.7040043,46.1545359 L25.8644025,47.7983898 C26.4687497,53.9920911 30.575256,59.2887469 36.4230721,61.4171779 L70.3523837,73.9669098 L70.3523837,34.8810142 Z" id="Combined-Shape" fill="#344F64" fill-rule="nonzero"></path>
            <polygon id="Rectangle" fill="url(#linearGradient-1)" points="111.489476 170.764164 160.355466 153.369309 198.782574 166.482077 152.589476 184.023056"></polygon>
            <path d="M26.8931822,3.01561334 C28.4633495,2.34033892 30.1600508,1.76645316 31.9832861,1.29395608 C33.8065213,0.821458992 35.6567704,0.476141498 37.5340335,0.258003594 L111.780888,89.1970935 L111.489476,103.491345 L26.8931822,3.01561334 Z" id="Rectangle" fill="url(#linearGradient-2)" opacity="0.0900762649"></path>
            <polygon id="Rectangle-Copy-2" fill="url(#linearGradient-3)" opacity="0.0900762649" points="70.073383 133.601409 96.6920426 165.487465 78.7640594 158.988144 69.1279684 147.543277"></polygon>
            <polygon id="Rectangle-Copy" fill="url(#linearGradient-4)" opacity="0.0900762649" points="22.3441248 5.19932027 23.7847892 4.48075886 113.124913 110.531037 113.124913 112.994089"></polygon>
        </g>
    </g>
</svg>